<svg xmlns="http://www.w3.org/2000/svg" width="24" height="24" viewBox="0 0 24 24" fill="none">
  <path d="M12.1596 10.87C12.0596 10.86 11.9396 10.86 11.8296 10.87C9.44957 10.79 7.55957 8.84 7.55957 6.44C7.55957 3.99 9.53957 2 11.9996 2C14.4496 2 16.4396 3.99 16.4396 6.44C16.4296 8.84 14.5396 10.79 12.1596 10.87Z" stroke="#191B2E" stroke-width="1.5" stroke-linecap="round" stroke-linejoin="round"/>
  <path d="M7.1607 14.56C4.7407 16.18 4.7407 18.82 7.1607 20.43C9.9107 22.27 14.4207 22.27 17.1707 20.43C19.5907 18.81 19.5907 16.17 17.1707 14.56C14.4307 12.73 9.9207 12.73 7.1607 14.56Z" stroke="#191B2E" stroke-width="1.5" stroke-linecap="round" stroke-linejoin="round"/>
  <path d="M7.16016 14.56C9.92016 12.73 14.4302 12.73 17.1702 14.56" stroke="#191B2E" stroke-width="1.5" stroke-linecap="round" stroke-linejoin="round"/>
</svg>