<svg xmlns="http://www.w3.org/2000/svg" width="24" height="24" viewBox="0 0 24 24" fill="none">
  <path d="M22.9992 17.9091C23.0192 18.6591 22.8192 19.3691 22.4592 19.9791C22.2592 20.3391 21.9892 20.6691 21.6892 20.9391C20.9992 21.5791 20.0892 21.9691 19.0792 21.9991C17.6192 22.0291 16.3292 21.2791 15.6192 20.1291C15.2392 19.5391 15.0092 18.8291 14.9992 18.0791C14.9692 16.8191 15.5292 15.6791 16.4292 14.9291C17.1092 14.3691 17.9692 14.0191 18.9092 13.9991C21.1192 13.9491 22.9492 15.6991 22.9992 17.9091Z" stroke="#757682" stroke-width="1.5" stroke-miterlimit="10" stroke-linecap="round" stroke-linejoin="round"/>
  <path d="M17.4395 18.0288L18.4495 18.9888L20.5395 16.9688" stroke="#757682" stroke-width="1.5" stroke-linecap="round" stroke-linejoin="round"/>
  <path d="M3.17188 7.44141L12.0019 12.5514L20.7719 7.47137" stroke="#757682" stroke-width="1.5" stroke-linecap="round" stroke-linejoin="round"/>
  <path d="M12.002 21.611V12.541" stroke="#757682" stroke-width="1.5" stroke-linecap="round" stroke-linejoin="round"/>
  <path d="M21.6106 9.17V14.83C21.6106 14.88 21.6106 14.92 21.6006 14.97C20.9006 14.36 20.0006 14 19.0006 14C18.0606 14 17.1906 14.33 16.5006 14.88C15.5806 15.61 15.0006 16.74 15.0006 18C15.0006 18.75 15.2106 19.46 15.5806 20.06C15.6706 20.22 15.7806 20.37 15.9006 20.51L14.0706 21.52C12.9306 22.16 11.0706 22.16 9.9306 21.52L4.59061 18.56C3.38061 17.89 2.39062 16.21 2.39062 14.83V9.17C2.39062 7.79 3.38061 6.11002 4.59061 5.44002L9.9306 2.48C11.0706 1.84 12.9306 1.84 14.0706 2.48L19.4106 5.44002C20.6206 6.11002 21.6106 7.79 21.6106 9.17Z" stroke="#757682" stroke-width="1.5" stroke-linecap="round" stroke-linejoin="round"/>
</svg>