<svg xmlns="http://www.w3.org/2000/svg" width="24" height="24" viewBox="0 0 24 24" fill="none">
  <path d="M21.97 15.0599V18.8399C21.97 20.9999 20.97 21.9999 18.81 21.9999H12.5V10.4199L12.97 10.5199L17.47 11.5299L19.5 11.9799C20.82 12.2699 21.9 12.9499 21.96 14.8699C21.97 14.9299 21.97 14.9899 21.97 15.0599Z" stroke="#757682" stroke-width="1.5" stroke-linecap="round" stroke-linejoin="round"/>
  <path d="M17.4687 11.5305V14.7505C17.4687 15.9905 16.4588 17.0005 15.2188 17.0005C13.9787 17.0005 12.9688 15.9905 12.9688 14.7505V10.5205L17.4687 11.5305Z" stroke="#757682" stroke-width="1.5" stroke-linecap="round" stroke-linejoin="round"/>
  <path d="M21.9587 14.8703C21.8987 16.0503 20.9188 17.0003 19.7188 17.0003C18.4787 17.0003 17.4688 15.9903 17.4688 14.7503V11.5303L19.4988 11.9803C20.8188 12.2703 21.8987 12.9503 21.9587 14.8703Z" stroke="#757682" stroke-width="1.5" stroke-linecap="round" stroke-linejoin="round"/>
  <path d="M12.4987 22.0003H4.07875C2.91875 22.0003 1.96875 21.0703 1.96875 19.9303V5.09035C1.96875 2.47035 3.91875 1.28035 6.30875 2.45035L10.7487 4.63035C11.7087 5.10035 12.4987 6.35035 12.4987 7.41035V22.0003Z" stroke="#757682" stroke-width="1.5" stroke-linecap="round" stroke-linejoin="round"/>
  <path d="M5.5 9H8.97" stroke="#757682" stroke-width="1.5" stroke-linecap="round" stroke-linejoin="round"/>
  <path d="M5.5 13H8.97" stroke="#757682" stroke-width="1.5" stroke-linecap="round" stroke-linejoin="round"/>
</svg>